<svg version="1.1" id="Layer_1" xmlns="http://www.w3.org/2000/svg" xmlns:xlink="http://www.w3.org/1999/xlink" x="0px" y="0px"
	 width="100%" viewBox="0 0 500 499" enable-background="new 0 0 500 499" xml:space="preserve">
<path fill="#000000" opacity="1.000000" stroke="none" 
	d="
M263.000000,500.000000 
	C175.333359,500.000000 88.166710,500.000000 1.000047,500.000000 
	C1.000031,333.666718 1.000031,167.333450 1.000016,1.000136 
	C167.666565,1.000091 334.333130,1.000091 500.999756,1.000045 
	C500.999847,167.333191 500.999847,333.666382 500.999939,499.999786 
	C421.833344,500.000000 342.666656,500.000000 263.000000,500.000000 
M310.354523,133.014435 
	C309.842529,133.415283 309.330536,133.816132 308.169800,134.460312 
	C304.380371,135.178772 303.218994,137.170410 304.684113,140.888641 
	C306.558014,145.644302 308.167480,150.504471 309.877167,155.324463 
	C313.448151,165.391968 316.890808,175.506912 320.602936,185.522018 
	C326.612793,201.736069 332.924591,217.838821 338.864807,234.077881 
	C343.093842,245.639114 346.888519,257.358673 350.944000,268.984222 
	C352.774719,274.232239 354.724823,279.440002 356.707184,284.633057 
	C357.651672,287.107330 358.798065,289.504486 360.381866,293.155762 
	C361.296356,290.960999 361.904999,290.227753 361.828613,289.574615 
	C360.640137,279.413116 359.281860,269.270477 358.209625,259.097534 
	C358.076202,257.831543 359.351074,256.417114 360.008942,255.015106 
	C360.008942,255.015106 359.948730,254.986496 360.029602,255.634003 
	C360.341888,256.196503 360.654205,256.759033 361.085052,257.984406 
	C368.971069,272.007782 376.768799,286.081787 384.767761,300.040405 
	C392.925171,314.275482 401.242401,328.419556 409.564240,342.559570 
	C414.004669,350.104492 418.602692,357.556641 423.208008,365.757416 
	C424.090942,367.179169 424.973877,368.600952 425.856812,370.022705 
	C426.231201,369.811371 426.605591,369.600006 426.979980,369.388672 
	C426.979980,357.944061 426.979980,346.499451 427.025543,334.647919 
	C427.025543,334.647919 426.994110,334.239655 427.704834,333.698456 
	C428.116272,325.614014 428.768677,317.532318 428.860321,309.444275 
	C428.929443,303.346497 428.280426,297.240601 428.003632,290.644531 
	C428.003632,290.644531 427.992981,290.148071 428.690796,289.613922 
	C428.747986,276.098419 428.811890,262.582916 428.825775,249.067398 
	C428.826141,248.710312 428.282532,248.352676 427.532166,247.517990 
	C421.031494,238.490356 414.734192,229.305893 407.944244,220.501328 
	C404.552826,216.103668 405.725769,213.486923 409.401947,210.154587 
	C417.506744,202.807846 425.292755,195.105362 433.086792,187.424179 
	C434.320801,186.208069 435.388489,184.443909 435.736267,182.767822 
	C438.555786,169.178772 441.195038,155.552231 443.870178,141.933365 
	C448.427826,118.730919 452.977173,95.526833 457.513397,72.320183 
	C458.018219,69.737503 458.415588,67.133812 459.126312,63.011517 
	C450.480804,66.874458 443.242249,69.979523 436.113007,73.318016 
	C413.258453,84.020401 390.433746,94.786789 367.640594,105.619156 
	C366.246124,106.281876 365.225189,107.730530 363.269104,108.824562 
	C362.593658,108.257378 361.308350,107.655487 361.338318,107.128448 
	C361.600067,102.527809 362.316010,97.947929 362.471100,93.347534 
	C362.683838,87.035637 362.524292,80.711189 362.524292,73.005180 
	C346.384308,93.070984 331.160767,111.997467 315.942017,130.982529 
	C315.942017,130.982529 315.970581,130.931473 315.260986,130.841537 
	C313.815216,131.547882 312.369476,132.254227 310.989197,132.992477 
	C310.989197,132.992477 311.020996,132.926910 310.354523,133.014435 
M367.906616,321.090149 
	C367.906616,321.090149 368.134338,321.087524 368.030579,320.152924 
	C367.677704,315.764343 367.324799,311.375793 366.189575,306.907471 
	C365.141907,306.930267 364.094269,306.953064 362.269135,307.380280 
	C362.269135,318.474579 362.269135,329.568909 362.269135,341.356171 
	C364.028015,340.863068 365.609955,340.419586 367.622650,339.297119 
	C367.622650,335.559326 367.622650,331.821564 367.622650,327.221649 
	C372.170807,327.221649 376.665253,326.614227 380.751221,327.637634 
	C381.807068,327.902069 381.587280,333.282990 381.938080,336.315430 
	C381.994659,336.804565 381.961914,337.303436 381.984741,337.797150 
	C382.119781,340.717316 383.698486,341.016144 386.779816,339.608643 
	C386.857422,329.365387 386.954102,319.122162 386.966614,308.878815 
	C386.967377,308.245453 386.305450,307.611328 385.143250,306.956787 
	C384.078278,308.457794 382.478363,309.825470 382.063812,311.488586 
	C381.289032,314.596954 381.202118,317.876831 379.923523,321.031982 
	C375.916504,320.975464 371.909485,320.918976 367.906616,321.090149 
M216.014053,152.985413 
	C216.014053,152.985413 216.078644,152.954422 215.924210,152.301071 
	C213.958817,150.506180 211.993423,148.711288 210.019287,146.980148 
	C210.019287,146.980148 210.082687,146.969055 209.904648,146.316757 
	C206.607819,142.850235 206.607819,142.850235 204.074493,145.126160 
	C202.957916,147.875504 201.775253,150.600128 200.735703,153.378296 
	C194.870132,169.053940 189.036987,184.741684 183.197891,200.427216 
	C182.190063,203.134552 181.610733,205.433624 184.222610,208.040985 
	C194.843216,218.643280 205.121582,229.587265 215.647110,240.286255 
	C225.427734,250.228073 235.354370,260.026398 245.237991,269.866547 
	C246.570358,271.193024 248.018768,273.383972 249.428070,273.395538 
	C251.066788,273.409058 253.001816,271.726593 254.324295,270.323914 
	C263.391357,260.707153 272.169739,250.814346 281.356232,241.315277 
	C291.313293,231.019440 301.454407,220.888184 311.835083,211.021622 
	C316.430542,206.653748 317.269012,202.783920 314.748596,196.695038 
	C308.141724,180.733826 302.443787,164.397018 296.324677,148.232239 
	C295.744385,146.699341 294.748535,145.323792 293.945618,143.875183 
	C293.220551,143.517441 292.495514,143.159683 291.770447,142.801941 
	C287.967346,147.343796 284.387756,152.097977 280.315582,156.384186 
	C271.245056,165.931412 261.953430,175.269516 252.692154,184.633774 
	C250.682755,186.665527 248.545013,187.067978 246.236786,184.696106 
	C236.832947,175.033005 227.344650,165.452057 217.977890,155.189423 
	C217.335938,154.434509 216.693985,153.679596 216.014053,152.985413 
M262.891479,307.411194 
	C262.574493,307.264313 262.257538,307.117401 261.180786,306.934387 
	C259.463470,308.652832 257.215881,310.092163 256.135010,312.145599 
	C253.588196,316.984100 251.597717,322.115417 248.811676,328.419067 
	C245.829239,321.732910 243.491943,316.640167 241.286926,311.490784 
	C240.094254,308.705597 238.684143,306.420349 234.315414,307.311951 
	C234.218658,317.682373 234.107635,328.052734 234.067169,338.423370 
	C234.065125,338.943909 234.673935,339.466797 235.451691,340.326660 
	C236.308914,340.175659 237.166138,340.024658 238.683395,339.383484 
	C238.832260,334.519989 238.926468,329.653320 239.210602,324.797760 
	C239.240494,324.286682 240.388962,323.841064 241.318710,323.960022 
	C242.443726,326.339752 243.391556,328.827606 244.754761,331.062012 
	C245.696442,332.605530 247.542633,335.093903 248.401459,334.874756 
	C250.106461,334.439636 251.835007,332.670349 252.785492,331.012054 
	C254.576477,327.887390 255.823090,324.450714 257.295990,321.143738 
	C257.862793,321.247192 258.429565,321.350616 258.996368,321.454071 
	C258.996368,327.633972 258.996368,333.813904 259.328064,340.745453 
	C260.521790,340.745453 261.715515,340.745453 263.056824,340.745453 
	C263.056824,338.816528 263.056824,337.326447 263.063995,335.549103 
	C263.063995,335.549103 262.960693,335.280914 263.724762,334.792084 
	C263.835449,326.979767 263.991882,319.167542 264.006714,311.355042 
	C264.008911,310.202789 263.340637,309.049255 262.976379,307.958252 
	C262.976379,307.958252 263.034698,307.936462 262.891479,307.411194 
M68.973076,313.888062 
	C68.973076,331.194427 68.973076,348.500793 68.973076,365.807190 
	C69.436333,365.955933 69.899590,366.104675 70.362846,366.253418 
	C71.214951,364.871002 72.067055,363.488586 73.161751,361.424500 
	C78.118004,353.038818 83.025864,344.624023 88.041786,336.274200 
	C95.680161,323.558838 103.442009,310.917480 111.062019,298.191193 
	C119.780037,283.631073 128.400253,269.012360 137.671432,253.989105 
	C138.224075,252.668686 138.776703,251.348267 139.621979,249.876877 
	C139.805237,249.747803 139.949173,249.584152 140.769699,249.498611 
	C141.137497,250.366089 141.904663,251.278809 141.812317,252.094177 
	C140.687119,262.028870 139.399612,271.945038 138.235168,281.875488 
	C137.791367,285.660278 137.554672,289.469360 137.223587,293.267365 
	C137.780884,293.355194 138.338181,293.443024 138.895477,293.530853 
	C140.265198,290.783234 141.976700,288.150879 142.948761,285.269104 
	C148.919022,267.569763 154.590973,249.769333 160.618561,232.089951 
	C166.387238,215.170013 172.524475,198.376099 178.391296,181.489120 
	C182.310974,170.206772 185.727417,158.740112 189.944778,147.573380 
	C194.084595,136.612000 193.990768,135.714996 183.156097,131.122131 
	C182.859558,130.996445 182.501984,131.014771 181.815567,130.370148 
	C180.081665,128.871338 178.041397,127.610565 176.662491,125.835915 
	C165.950882,112.050102 155.376877,98.157455 144.736649,84.316055 
	C141.809937,80.508835 138.803207,76.763138 135.608734,72.704002 
	C134.738068,73.939255 134.180664,74.369591 134.230057,74.712547 
	C135.584229,84.117836 136.846146,93.541328 138.491913,102.896965 
	C139.046402,106.049049 139.245636,108.205360 134.587967,107.805641 
	C102.905396,93.105766 71.222816,78.405899 38.537647,63.240845 
	C40.357803,72.539734 41.769878,80.466721 43.480289,88.328804 
	C46.206577,100.860519 49.225243,113.328629 51.950497,125.860565 
	C56.105896,144.968964 60.015938,164.131439 64.300079,183.210342 
	C64.920998,185.975555 66.559639,188.876328 68.551910,190.904343 
	C75.860268,198.343765 83.365028,205.609772 91.116425,212.584824 
	C94.217728,215.375504 93.966248,217.686844 91.843597,220.534790 
	C87.295929,226.636353 82.708672,232.708450 78.171181,238.817551 
	C75.536011,242.365463 71.296463,245.709961 70.711624,249.588272 
	C69.467392,257.839142 70.137680,266.378784 69.278282,275.293121 
	C69.233154,287.848450 69.188026,300.403778 68.973076,313.888062 
M332.235748,307.332520 
	C332.159943,317.566650 332.065247,327.800781 332.051849,338.035004 
	C332.050995,338.702972 332.674377,339.371704 333.577118,340.464874 
	C338.113220,341.511108 337.974426,338.376923 338.071167,335.444977 
	C338.305420,328.347961 338.307281,328.348114 345.416260,327.722504 
	C345.746826,327.693420 346.077606,327.665100 346.407379,327.628418 
	C352.028046,327.003693 356.108734,322.206635 355.917297,316.450714 
	C355.726807,310.725403 352.116364,307.149475 345.992462,306.936920 
	C341.682648,306.787354 337.361877,306.952942 332.235748,307.332520 
M301.204468,307.368011 
	C301.144958,317.590424 301.066986,327.812866 301.068451,338.035278 
	C301.068542,338.698975 301.679016,339.362640 302.558105,340.468201 
	C306.097931,341.344147 306.984833,339.325317 306.997223,336.381500 
	C307.010101,333.323334 307.000122,330.265106 307.000122,327.447662 
	C311.960144,326.264862 314.560455,327.664368 316.197906,331.535248 
	C317.284180,334.103058 318.816895,336.551697 320.535156,338.752808 
	C321.381287,339.836731 323.101532,340.238251 324.426270,340.948547 
	C324.830872,340.518982 325.235474,340.089417 325.640076,339.659851 
	C324.054443,336.286713 322.265228,332.988129 320.989014,329.501770 
	C320.515289,328.207672 320.685089,325.979645 321.525024,325.028015 
	C324.602661,321.540894 327.256287,318.153778 325.010651,313.192841 
	C323.038544,308.836273 316.843048,305.488983 311.863403,306.029419 
	C308.579803,306.385803 305.289215,306.678162 301.204468,307.368011 
M134.281830,307.003448 
	C130.013733,306.900360 130.263397,310.777527 129.025986,313.185333 
	C126.670425,317.768890 124.621437,322.510010 121.937538,328.276276 
	C120.449417,325.482819 119.516724,323.971252 118.811211,322.360168 
	C117.092819,318.436127 115.832924,314.256653 113.669144,310.606354 
	C112.651039,308.888885 109.976669,308.153229 107.284111,307.390381 
	C107.201538,317.069763 107.085350,326.749115 107.079956,336.428558 
	C107.079300,337.607361 107.674347,338.786469 108.535614,340.347626 
	C112.410469,340.849457 111.814102,337.899048 111.885994,335.760620 
	C112.030197,331.471710 111.928841,327.174500 111.928841,322.880737 
	C112.585411,322.823059 113.241989,322.765411 113.898560,322.707733 
	C115.313240,325.970886 116.604752,329.296295 118.206459,332.464935 
	C118.802925,333.644928 120.160789,335.277710 121.106926,335.236115 
	C122.355309,335.181244 123.985840,333.939178 124.669930,332.755463 
	C126.836456,329.006500 128.639099,325.047241 130.582458,321.169312 
	C131.721146,322.968323 131.990067,324.671356 132.025833,326.379272 
	C132.105774,330.196564 131.880219,334.029236 132.140640,337.830872 
	C132.347687,340.853302 133.086273,341.008789 136.766632,338.752319 
	C136.862366,328.986176 137.006027,319.219849 136.966125,309.454254 
	C136.962799,308.641388 135.720139,307.833557 134.281830,307.003448 
M166.758087,306.891296 
	C159.519302,306.919800 152.280518,306.948303 144.263016,307.379547 
	C144.182251,317.403900 144.077530,327.428192 144.063980,337.452637 
	C144.062851,338.298462 144.672653,339.145142 145.694641,340.430908 
	C151.670273,340.555328 157.648163,340.800751 163.619385,340.688995 
	C164.654129,340.669586 165.660553,339.138245 166.680054,338.305267 
	C165.592010,337.521210 164.567902,336.196716 163.403412,336.059021 
	C160.444458,335.709076 157.421982,335.835388 154.426239,335.873779 
	C151.137497,335.915863 150.169388,334.144684 150.129578,331.133270 
	C150.088745,328.044220 151.525497,326.973419 154.394379,327.079803 
	C156.220947,327.147583 158.198975,327.431641 159.843796,326.858032 
	C161.404648,326.313690 162.620102,324.778839 163.987442,323.679565 
	C163.695175,323.113037 163.402924,322.546478 163.110672,321.979950 
	C160.327148,321.979950 157.534348,321.835938 154.762314,322.014435 
	C150.811523,322.268860 150.094330,320.151794 150.082352,316.769379 
	C150.070206,313.344482 151.322342,311.995483 154.773605,312.048004 
	C161.984985,312.157776 169.200378,312.002960 176.913284,312.778748 
	C176.949356,319.529419 176.907364,326.281891 177.064423,333.029724 
	C177.118378,335.348694 177.669540,337.656128 178.440643,340.371918 
	C179.608017,340.257538 180.775391,340.143188 182.734634,339.640747 
	C182.826187,337.662659 182.948380,335.685455 183.003799,333.706360 
	C183.206772,326.459259 183.387497,319.211548 184.375748,312.052155 
	C188.066162,312.080170 192.338257,312.976685 191.621857,306.160278 
	C187.146255,306.114960 182.666199,305.928192 178.196487,306.069427 
	C174.671555,306.180847 171.159363,306.696014 166.758087,306.891296 
M271.229218,314.411560 
	C271.322845,320.373047 271.141541,326.355682 271.598602,332.289185 
	C271.953857,336.901123 275.152832,339.818329 279.490906,340.751648 
	C285.366211,342.015686 290.033081,339.664276 292.704834,335.105499 
	C296.260101,329.039185 295.415985,322.511719 294.517151,316.144165 
	C293.804474,311.095245 288.932312,306.961151 284.390198,306.430267 
	C278.512512,305.743286 274.654694,307.923462 271.229218,314.411560 
M202.698715,312.146210 
	C199.625183,320.037811 196.434418,327.887695 193.599152,335.864014 
	C193.152084,337.121765 194.313019,338.951080 194.730469,340.516144 
	C195.888916,339.609283 197.709900,338.916443 198.084610,337.756409 
	C199.329559,333.902283 202.203049,333.827881 205.280899,334.071228 
	C208.557373,334.330322 212.618835,332.688263 214.312027,337.274017 
	C215.136856,339.507904 216.238632,341.703033 218.784012,340.145752 
	C219.622528,339.632782 219.500961,336.574738 218.967834,334.961517 
	C216.412781,327.230225 213.690323,319.546906 210.734726,311.960541 
	C210.005493,310.088776 208.180786,308.643829 206.859695,307.002655 
	C205.545013,308.468201 204.230331,309.933746 202.698715,312.146210 
z"/>
<path fill="#232020" opacity="1.000000" stroke="none" 
	d="
M427.992981,290.148071 
	C427.992981,290.148071 428.003632,290.644531 427.871887,291.271606 
	C427.491486,306.012360 427.242798,320.126007 426.994110,334.239655 
	C426.994110,334.239655 427.025543,334.647919 426.891144,335.236847 
	C426.756744,346.134491 426.756744,356.443176 426.756744,366.751892 
	C426.233490,366.819794 425.710266,366.887665 425.187012,366.955536 
	C424.501190,366.320587 423.815399,365.685608 423.129578,365.050659 
	C418.602692,357.556641 414.004669,350.104492 409.564240,342.559570 
	C401.242401,328.419556 392.925171,314.275482 384.767761,300.040405 
	C376.768799,286.081787 368.971069,272.007782 360.972473,257.328491 
	C360.556183,256.110565 360.252472,255.548538 359.948730,254.986496 
	C359.948730,254.986496 360.008942,255.015106 359.916779,254.688416 
	C357.004425,243.360748 353.638062,232.463562 351.522308,221.328751 
	C349.528412,210.835007 349.021881,200.067444 347.554901,189.462677 
	C345.496307,174.581070 343.182129,159.734436 340.916901,144.882050 
	C340.244904,140.475922 339.623779,136.033005 338.478302,131.740646 
	C337.923370,129.661148 336.210541,127.890633 334.998535,125.749191 
	C334.975159,125.518166 334.934387,125.055557 334.888031,124.717453 
	C333.637329,121.171806 335.877014,119.808647 338.095856,118.624969 
	C343.024231,115.995804 348.025543,113.503334 353.264343,110.873978 
	C354.006866,110.506828 354.482147,110.220840 355.381653,109.950790 
	C357.220337,109.954735 358.634796,109.942741 360.412537,109.980911 
	C361.860687,109.625214 362.945557,109.219368 364.030457,108.813515 
	C365.225189,107.730530 366.246124,106.281876 367.640594,105.619156 
	C390.433746,94.786789 413.258453,84.020401 436.113007,73.318016 
	C443.242249,69.979523 450.480804,66.874458 459.126312,63.011517 
	C458.415588,67.133812 458.018219,69.737503 457.513397,72.320183 
	C452.977173,95.526833 448.427826,118.730919 443.870178,141.933365 
	C441.195038,155.552231 438.555786,169.178772 435.736267,182.767822 
	C435.388489,184.443909 434.320801,186.208069 433.086792,187.424179 
	C425.292755,195.105362 417.506744,202.807846 409.401947,210.154587 
	C405.725769,213.486923 404.552826,216.103668 407.944244,220.501328 
	C414.734192,229.305893 421.031494,238.490356 427.730591,248.225006 
	C427.950348,262.670715 427.971680,276.409393 427.992981,290.148071 
z"/>
<path fill="#232021" opacity="1.000000" stroke="none" 
	d="
M70.023270,274.800049 
	C70.137680,266.378784 69.467392,257.839142 70.711624,249.588272 
	C71.296463,245.709961 75.536011,242.365463 78.171181,238.817551 
	C82.708672,232.708450 87.295929,226.636353 91.843597,220.534790 
	C93.966248,217.686844 94.217728,215.375504 91.116425,212.584824 
	C83.365028,205.609772 75.860268,198.343765 68.551910,190.904343 
	C66.559639,188.876328 64.920998,185.975555 64.300079,183.210342 
	C60.015938,164.131439 56.105896,144.968964 51.950497,125.860565 
	C49.225243,113.328629 46.206577,100.860519 43.480289,88.328804 
	C41.769878,80.466721 40.357803,72.539734 38.537647,63.240845 
	C71.222816,78.405899 102.905396,93.105766 135.152039,108.192352 
	C141.110809,110.313499 146.535233,111.961868 151.889984,113.811867 
	C155.614990,115.098808 159.244339,116.662689 163.011169,118.468666 
	C162.718811,121.457504 162.497437,124.119141 161.897766,126.692627 
	C161.303986,129.240845 159.964081,131.645874 159.582672,134.207672 
	C157.764343,146.420670 156.169830,158.666870 154.476624,170.898636 
	C153.841064,175.490036 153.293304,180.099731 152.460983,184.656433 
	C150.765106,193.940903 147.993851,203.130615 147.331573,212.477402 
	C146.432205,225.170242 144.454636,237.469360 140.053787,249.385910 
	C139.949173,249.584152 139.805237,249.747803 139.112366,250.095291 
	C138.089493,251.682175 137.576233,253.050659 137.062973,254.419128 
	C128.400253,269.012360 119.780037,283.631073 111.062019,298.191193 
	C103.442009,310.917480 95.680161,323.558838 88.041786,336.274200 
	C83.025864,344.624023 78.118004,353.038818 72.665627,361.651093 
	C71.512352,360.227844 70.308334,358.586121 70.283669,356.926880 
	C70.065964,342.284332 70.057800,327.638672 70.030273,312.527313 
	C70.056343,299.640472 70.039810,287.220276 70.023270,274.800049 
z"/>
<path fill="#232021" opacity="1.000000" stroke="none" 
	d="
M217.887466,155.840851 
	C227.344650,165.452057 236.832947,175.033005 246.236786,184.696106 
	C248.545013,187.067978 250.682755,186.665527 252.692154,184.633774 
	C261.953430,175.269516 271.245056,165.931412 280.315582,156.384186 
	C284.387756,152.097977 287.967346,147.343796 291.770447,142.801941 
	C292.495514,143.159683 293.220551,143.517441 293.945618,143.875183 
	C294.748535,145.323792 295.744385,146.699341 296.324677,148.232239 
	C302.443787,164.397018 308.141724,180.733826 314.748596,196.695038 
	C317.269012,202.783920 316.430542,206.653748 311.835083,211.021622 
	C301.454407,220.888184 291.313293,231.019440 281.356232,241.315277 
	C272.169739,250.814346 263.391357,260.707153 254.324295,270.323914 
	C253.001816,271.726593 251.066788,273.409058 249.428070,273.395538 
	C248.018768,273.383972 246.570358,271.193024 245.237991,269.866547 
	C235.354370,260.026398 225.427734,250.228073 215.647110,240.286255 
	C205.121582,229.587265 194.843216,218.643280 184.222610,208.040985 
	C181.610733,205.433624 182.190063,203.134552 183.197891,200.427216 
	C189.036987,184.741684 194.870132,169.053940 200.735703,153.378296 
	C201.775253,150.600128 202.957916,147.875504 204.662811,144.771423 
	C206.861649,145.267487 208.472168,146.118271 210.082687,146.969055 
	C210.082687,146.969055 210.019287,146.980148 209.952850,147.303925 
	C211.950485,149.403290 214.014572,151.178848 216.078644,152.954422 
	C216.078644,152.954422 216.014053,152.985413 215.904037,153.254745 
	C216.491837,154.296341 217.189651,155.068588 217.887466,155.840851 
z"/>
<path fill="#313131" opacity="1.000000" stroke="none" 
	d="
M335.021942,125.980225 
	C336.210541,127.890633 337.923370,129.661148 338.478302,131.740646 
	C339.623779,136.033005 340.244904,140.475922 340.916901,144.882050 
	C343.182129,159.734436 345.496307,174.581070 347.554901,189.462677 
	C349.021881,200.067444 349.528412,210.835007 351.522308,221.328751 
	C353.638062,232.463562 357.004425,243.360748 359.898987,254.716583 
	C359.351074,256.417114 358.076202,257.831543 358.209625,259.097534 
	C359.281860,269.270477 360.640137,279.413116 361.828613,289.574615 
	C361.904999,290.227753 361.296356,290.960999 360.381866,293.155762 
	C358.798065,289.504486 357.651672,287.107330 356.707184,284.633057 
	C354.724823,279.440002 352.774719,274.232239 350.944000,268.984222 
	C346.888519,257.358673 343.093842,245.639114 338.864807,234.077881 
	C332.924591,217.838821 326.612793,201.736069 320.602936,185.522018 
	C316.890808,175.506912 313.448151,165.391968 309.877167,155.324463 
	C308.167480,150.504471 306.558014,145.644302 304.684113,140.888641 
	C303.218994,137.170410 304.380371,135.178772 308.798523,134.220718 
	C309.958496,133.629715 310.489746,133.278305 311.020996,132.926910 
	C311.020996,132.926910 310.989197,132.992477 311.340088,132.986267 
	C313.117523,132.297180 314.544037,131.614319 315.970581,130.931473 
	C315.970581,130.931473 315.942017,130.982529 316.287109,131.049881 
	C322.562042,133.996048 327.807770,130.184036 333.326599,129.249802 
	C334.055328,129.126434 334.464691,127.116447 335.021942,125.980225 
z"/>
<path fill="#313131" opacity="1.000000" stroke="none" 
	d="
M140.411743,249.442261 
	C144.454636,237.469360 146.432205,225.170242 147.331573,212.477402 
	C147.993851,203.130615 150.765106,193.940903 152.460983,184.656433 
	C153.293304,180.099731 153.841064,175.490036 154.476624,170.898636 
	C156.169830,158.666870 157.764343,146.420670 159.582672,134.207672 
	C159.964081,131.645874 161.303986,129.240845 161.897766,126.692627 
	C162.497437,124.119141 162.718811,121.457504 163.357819,118.529434 
	C167.046524,119.394180 167.062241,121.589584 165.779037,124.524300 
	C163.727066,129.217270 164.343674,130.411285 169.393417,130.834534 
	C173.627167,131.189392 177.911133,130.944992 182.172867,130.965912 
	C182.501984,131.014771 182.859558,130.996445 183.156097,131.122131 
	C193.990768,135.714996 194.084595,136.612000 189.944778,147.573380 
	C185.727417,158.740112 182.310974,170.206772 178.391296,181.489120 
	C172.524475,198.376099 166.387238,215.170013 160.618561,232.089951 
	C154.590973,249.769333 148.919022,267.569763 142.948761,285.269104 
	C141.976700,288.150879 140.265198,290.783234 138.895477,293.530853 
	C138.338181,293.443024 137.780884,293.355194 137.223587,293.267365 
	C137.554672,289.469360 137.791367,285.660278 138.235168,281.875488 
	C139.399612,271.945038 140.687119,262.028870 141.812317,252.094177 
	C141.904663,251.278809 141.137497,250.366089 140.411743,249.442261 
z"/>
<path fill="#414141" opacity="1.000000" stroke="none" 
	d="
M334.998535,125.749191 
	C334.464691,127.116447 334.055328,129.126434 333.326599,129.249802 
	C327.807770,130.184036 322.562042,133.996048 316.284729,131.020599 
	C331.160767,111.997467 346.384308,93.070984 362.524292,73.005180 
	C362.524292,80.711189 362.683838,87.035637 362.471100,93.347534 
	C362.316010,97.947929 361.600067,102.527809 361.338318,107.128448 
	C361.308350,107.655487 362.593658,108.257378 363.649780,108.819046 
	C362.945557,109.219368 361.860687,109.625214 360.251404,109.691971 
	C358.137146,109.546875 356.547272,109.740860 354.957428,109.934845 
	C354.482147,110.220840 354.006866,110.506828 352.985901,110.745476 
	C346.290833,113.307541 339.943848,115.543457 334.060455,118.655724 
	C330.036957,120.784126 330.499939,122.536293 334.934387,125.055557 
	C334.934387,125.055557 334.975159,125.518166 334.998535,125.749191 
z"/>
<path fill="#414141" opacity="1.000000" stroke="none" 
	d="
M181.994217,130.668030 
	C177.911133,130.944992 173.627167,131.189392 169.393417,130.834534 
	C164.343674,130.411285 163.727066,129.217270 165.779037,124.524300 
	C167.062241,121.589584 167.046524,119.394180 163.263062,118.163612 
	C159.244339,116.662689 155.614990,115.098808 151.889984,113.811867 
	C146.535233,111.961868 141.110809,110.313499 135.471954,108.374161 
	C139.245636,108.205360 139.046402,106.049049 138.491913,102.896965 
	C136.846146,93.541328 135.584229,84.117836 134.230057,74.712547 
	C134.180664,74.369591 134.738068,73.939255 135.608734,72.704002 
	C138.803207,76.763138 141.809937,80.508835 144.736649,84.316055 
	C155.376877,98.157455 165.950882,112.050102 176.662491,125.835915 
	C178.041397,127.610565 180.081665,128.871338 181.994217,130.668030 
z"/>
<path fill="#1B1B1B" opacity="1.000000" stroke="none" 
	d="
M191.979813,306.959351 
	C192.338257,312.976685 188.066162,312.080170 183.516815,312.088257 
	C182.419510,321.425812 182.181137,330.727325 181.942764,340.028809 
	C180.775391,340.143188 179.608017,340.257538 178.234406,339.703979 
	C178.020309,331.378082 178.089996,323.718567 177.933182,316.063660 
	C177.904953,314.684937 176.944290,313.325287 176.414124,311.956848 
	C169.200378,312.002960 161.984985,312.157776 154.773605,312.048004 
	C151.322342,311.995483 150.070206,313.344482 150.082352,316.769379 
	C150.094330,320.151794 150.811523,322.268860 154.762314,322.014435 
	C157.534348,321.835938 160.327148,321.979950 163.110672,321.979950 
	C163.402924,322.546478 163.695175,323.113037 163.987442,323.679565 
	C162.620102,324.778839 161.404648,326.313690 159.843796,326.858032 
	C158.198975,327.431641 156.220947,327.147583 154.394379,327.079803 
	C151.525497,326.973419 150.088745,328.044220 150.129578,331.133270 
	C150.169388,334.144684 151.137497,335.915863 154.426239,335.873779 
	C157.421982,335.835388 160.444458,335.709076 163.403412,336.059021 
	C164.567902,336.196716 165.592010,337.521210 166.680054,338.305267 
	C165.660553,339.138245 164.654129,340.669586 163.619385,340.688995 
	C157.648163,340.800751 151.670273,340.555328 145.363831,339.743347 
	C145.035919,328.362793 145.038834,317.669800 145.041733,306.976807 
	C152.280518,306.948303 159.519302,306.919800 167.678375,307.087921 
	C176.392380,307.176147 184.186096,307.067749 191.979813,306.959351 
z"/>
<path fill="#171717" opacity="1.000000" stroke="none" 
	d="
M135.969696,339.169800 
	C133.086273,341.008789 132.347687,340.853302 132.140640,337.830872 
	C131.880219,334.029236 132.105774,330.196564 132.025833,326.379272 
	C131.990067,324.671356 131.721146,322.968323 130.582458,321.169312 
	C128.639099,325.047241 126.836456,329.006500 124.669930,332.755463 
	C123.985840,333.939178 122.355309,335.181244 121.106926,335.236115 
	C120.160789,335.277710 118.802925,333.644928 118.206459,332.464935 
	C116.604752,329.296295 115.313240,325.970886 113.898560,322.707733 
	C113.241989,322.765411 112.585411,322.823059 111.928841,322.880737 
	C111.928841,327.174500 112.030197,331.471710 111.885994,335.760620 
	C111.814102,337.899048 112.410469,340.849457 108.275787,339.690247 
	C108.028252,328.346161 108.040543,317.659424 108.052826,306.972687 
	C109.976669,308.153229 112.651039,308.888885 113.669144,310.606354 
	C115.832924,314.256653 117.092819,318.436127 118.811211,322.360168 
	C119.516724,323.971252 120.449417,325.482819 121.937538,328.276276 
	C124.621437,322.510010 126.670425,317.768890 129.025986,313.185333 
	C130.263397,310.777527 130.013733,306.900360 134.731827,307.425720 
	C135.380402,309.629669 135.727646,311.409241 135.752350,313.193268 
	C135.872238,321.851471 135.905655,330.510834 135.969696,339.169800 
z"/>
<path fill="#1A1A1A" opacity="1.000000" stroke="none" 
	d="
M302.001770,306.999176 
	C305.289215,306.678162 308.579803,306.385803 311.863403,306.029419 
	C316.843048,305.488983 323.038544,308.836273 325.010651,313.192841 
	C327.256287,318.153778 324.602661,321.540894 321.525024,325.028015 
	C320.685089,325.979645 320.515289,328.207672 320.989014,329.501770 
	C322.265228,332.988129 324.054443,336.286713 325.640076,339.659851 
	C325.235474,340.089417 324.830872,340.518982 324.426270,340.948547 
	C323.101532,340.238251 321.381287,339.836731 320.535156,338.752808 
	C318.816895,336.551697 317.284180,334.103058 316.197906,331.535248 
	C314.560455,327.664368 311.960144,326.264862 307.000122,327.447662 
	C307.000122,330.265106 307.010101,333.323334 306.997223,336.381500 
	C306.984833,339.325317 306.097931,341.344147 302.314819,339.777924 
	C302.048309,328.391479 302.025024,317.695343 302.001770,306.999176 
M319.562164,314.931671 
	C316.854980,310.349457 312.571655,312.184387 308.842590,312.620148 
	C308.089233,312.708191 307.146118,315.265747 307.152374,316.680969 
	C307.159485,318.296112 307.645325,320.674225 308.768280,321.384460 
	C313.192291,324.182495 318.850800,321.066498 319.562164,314.931671 
z"/>
<path fill="#171717" opacity="1.000000" stroke="none" 
	d="
M262.960693,335.280914 
	C262.960693,335.280914 263.063995,335.549103 262.775665,335.932678 
	C261.323669,337.542114 260.160004,338.767944 258.996368,339.993805 
	C258.996368,333.813904 258.996368,327.633972 258.996368,321.454071 
	C258.429565,321.350616 257.862793,321.247192 257.295990,321.143738 
	C255.823090,324.450714 254.576477,327.887390 252.785492,331.012054 
	C251.835007,332.670349 250.106461,334.439636 248.401459,334.874756 
	C247.542633,335.093903 245.696442,332.605530 244.754761,331.062012 
	C243.391556,328.827606 242.443726,326.339752 241.242157,323.279968 
	C240.608429,321.549316 240.051285,320.498718 239.494125,319.448151 
	C239.003876,319.589478 238.513611,319.730774 238.023346,319.872101 
	C238.023346,326.539276 238.023346,333.206482 238.023346,339.873657 
	C237.166138,340.024658 236.308914,340.175659 235.245682,339.690125 
	C235.067383,328.348236 235.095078,317.642883 235.122772,306.937531 
	C238.684143,306.420349 240.094254,308.705597 241.286926,311.490784 
	C243.491943,316.640167 245.829239,321.732910 248.811676,328.419067 
	C251.597717,322.115417 253.588196,316.984100 256.135010,312.145599 
	C257.215881,310.092163 259.463470,308.652832 261.607422,307.246918 
	C262.367584,307.685120 262.701141,307.810791 263.034698,307.936462 
	C263.034698,307.936462 262.976379,307.958252 262.826904,308.381165 
	C262.771851,317.629669 262.866272,326.455292 262.960693,335.280914 
z"/>
<path fill="#171717" opacity="1.000000" stroke="none" 
	d="
M271.411102,314.036926 
	C274.654694,307.923462 278.512512,305.743286 284.390198,306.430267 
	C288.932312,306.961151 293.804474,311.095245 294.517151,316.144165 
	C295.415985,322.511719 296.260101,329.039185 292.704834,335.105499 
	C290.033081,339.664276 285.366211,342.015686 279.490906,340.751648 
	C275.152832,339.818329 271.953857,336.901123 271.598602,332.289185 
	C271.141541,326.355682 271.322845,320.373047 271.411102,314.036926 
M287.170776,313.283173 
	C279.097076,310.345673 276.050507,312.457184 276.038483,321.009949 
	C276.034760,323.663910 275.908020,326.329193 276.106110,328.969116 
	C276.354248,332.275970 277.290039,335.358978 281.292419,335.757904 
	C285.486694,336.176025 289.164307,334.244476 289.378662,330.180420 
	C289.665039,324.750305 288.392883,319.237976 287.170776,313.283173 
z"/>
<path fill="#1B1B1B" opacity="1.000000" stroke="none" 
	d="
M202.807190,311.772736 
	C204.230331,309.933746 205.545013,308.468201 206.859680,307.002655 
	C208.180786,308.643829 210.005493,310.088776 210.734726,311.960541 
	C213.690323,319.546906 216.412781,327.230225 218.967834,334.961517 
	C219.500961,336.574738 219.622528,339.632782 218.784012,340.145752 
	C216.238632,341.703033 215.136856,339.507904 214.312027,337.274017 
	C212.618835,332.688263 208.557373,334.330322 205.280899,334.071228 
	C202.203049,333.827881 199.329559,333.902283 198.084610,337.756409 
	C197.709900,338.916443 195.888916,339.609283 194.730469,340.516144 
	C194.313019,338.951080 193.152084,337.121765 193.599152,335.864014 
	C196.434418,327.887695 199.625183,320.037811 202.807190,311.772736 
M208.166351,318.820038 
	C207.134201,316.841980 206.100845,316.022156 205.047089,318.808197 
	C204.250412,320.914551 203.583862,323.084747 202.608322,325.105286 
	C201.333572,327.745575 202.361633,328.675018 204.921082,328.980713 
	C209.825485,329.566376 211.284470,327.864929 209.777679,323.154083 
	C209.377197,321.902039 208.919922,320.668121 208.166351,318.820038 
z"/>
<path fill="#1A1A1A" opacity="1.000000" stroke="none" 
	d="
M333.046021,306.977814 
	C337.361877,306.952942 341.682648,306.787354 345.992462,306.936920 
	C352.116364,307.149475 355.726807,310.725403 355.917297,316.450714 
	C356.108734,322.206635 352.028046,327.003693 346.407379,327.628418 
	C346.077606,327.665100 345.746826,327.693420 345.416260,327.722504 
	C338.307281,328.348114 338.305420,328.347961 338.071167,335.444977 
	C337.974426,338.376923 338.113220,341.511108 333.332306,339.782715 
	C333.073669,328.392975 333.059845,317.685394 333.046021,306.977814 
M340.763214,322.780304 
	C343.023834,322.440918 345.510406,322.564636 347.470093,321.608459 
	C348.911438,320.905212 350.484772,318.797699 350.500702,317.300049 
	C350.518005,315.673309 349.002777,312.832062 347.800079,312.629181 
	C344.908600,312.141449 341.809143,312.886932 338.793549,313.134888 
	C339.181061,316.297394 339.568542,319.459869 340.763214,322.780304 
z"/>
<path fill="#171717" opacity="1.000000" stroke="none" 
	d="
M363.046600,306.975861 
	C364.094269,306.953064 365.141907,306.930267 366.496460,307.406677 
	C367.247009,312.299774 367.690674,316.693665 368.134338,321.087524 
	C368.134338,321.087524 367.906616,321.090149 368.041504,321.400909 
	C372.393921,321.502869 376.611450,321.294098 380.828979,321.085327 
	C381.202118,317.876831 381.289032,314.596954 382.063812,311.488586 
	C382.478363,309.825470 384.078278,308.457794 385.485413,307.433838 
	C385.884064,318.607758 385.940613,329.304565 385.997162,340.001404 
	C383.698486,341.016144 382.119781,340.717316 381.984741,337.797150 
	C381.961914,337.303436 381.994659,336.804565 381.938080,336.315430 
	C381.587280,333.282990 381.807068,327.902069 380.751221,327.637634 
	C376.665253,326.614227 372.170807,327.221649 367.622650,327.221649 
	C367.622650,331.821564 367.622650,335.559326 366.970825,339.598969 
	C362.849915,340.570862 363.015015,338.214172 363.018616,335.960846 
	C363.034058,326.299194 363.038300,316.637512 363.046600,306.975861 
z"/>
<path fill="#5D5D5D" opacity="1.000000" stroke="none" 
	d="
M423.168793,365.404022 
	C423.815399,365.685608 424.501190,366.320587 425.187012,366.955536 
	C425.710266,366.887665 426.233490,366.819794 426.756744,366.751892 
	C426.756744,356.443176 426.756744,346.134491 426.868347,335.440308 
	C426.979980,346.499451 426.979980,357.944061 426.979980,369.388672 
	C426.605591,369.600006 426.231201,369.811371 425.856812,370.022705 
	C424.973877,368.600952 424.090942,367.179169 423.168793,365.404022 
z"/>
<path fill="#5D5D5D" opacity="1.000000" stroke="none" 
	d="
M427.349487,333.969055 
	C427.242798,320.126007 427.491486,306.012360 427.845642,291.518494 
	C428.280426,297.240601 428.929443,303.346497 428.860321,309.444275 
	C428.768677,317.532318 428.116272,325.614014 427.349487,333.969055 
z"/>
<path fill="#767676" opacity="1.000000" stroke="none" 
	d="
M69.987679,312.993927 
	C70.057800,327.638672 70.065964,342.284332 70.283669,356.926880 
	C70.308334,358.586121 71.512352,360.227844 72.544327,361.991943 
	C72.067055,363.488586 71.214951,364.871002 70.362846,366.253418 
	C69.899590,366.104675 69.436333,365.955933 68.973076,365.807190 
	C68.973076,348.500793 68.973076,331.194427 69.269196,313.432068 
	C69.565308,312.976105 69.987679,312.993927 69.987679,312.993927 
z"/>
<path fill="#5D5D5D" opacity="1.000000" stroke="none" 
	d="
M428.341888,289.880981 
	C427.971680,276.409393 427.950348,262.670715 427.960846,248.463654 
	C428.282532,248.352676 428.826141,248.710312 428.825775,249.067398 
	C428.811890,262.582916 428.747986,276.098419 428.341888,289.880981 
z"/>
<path fill="#989898" opacity="1.000000" stroke="none" 
	d="
M70.030273,312.527313 
	C69.987679,312.993927 69.565308,312.976105 69.354103,312.967590 
	C69.188026,300.403778 69.233154,287.848450 69.650780,275.046570 
	C70.039810,287.220276 70.056343,299.640472 70.030273,312.527313 
z"/>
<path fill="#767676" opacity="1.000000" stroke="none" 
	d="
M362.657867,307.178070 
	C363.038300,316.637512 363.034058,326.299194 363.018616,335.960846 
	C363.015015,338.214172 362.849915,340.570862 366.755432,339.938477 
	C365.609955,340.419586 364.028015,340.863068 362.269135,341.356171 
	C362.269135,329.568909 362.269135,318.474579 362.657867,307.178070 
z"/>
<path fill="#989898" opacity="1.000000" stroke="none" 
	d="
M386.388489,339.805023 
	C385.940613,329.304565 385.884064,318.607758 385.889709,307.444214 
	C386.305450,307.611328 386.967377,308.245453 386.966614,308.878815 
	C386.954102,319.122162 386.857422,329.365387 386.388489,339.805023 
z"/>
<path fill="#767676" opacity="1.000000" stroke="none" 
	d="
M144.652374,307.178162 
	C145.038834,317.669800 145.035919,328.362793 145.015808,339.523621 
	C144.672653,339.145142 144.062851,338.298462 144.063980,337.452637 
	C144.077530,327.428192 144.182251,317.403900 144.652374,307.178162 
z"/>
<path fill="#989898" opacity="1.000000" stroke="none" 
	d="
M332.640869,307.155151 
	C333.059845,317.685394 333.073669,328.392975 333.047424,339.570312 
	C332.674377,339.371704 332.050995,338.702972 332.051849,338.035004 
	C332.065247,327.800781 332.159943,317.566650 332.640869,307.155151 
z"/>
<path fill="#B1B1B1" opacity="1.000000" stroke="none" 
	d="
M301.603119,307.183594 
	C302.025024,317.695343 302.048309,328.391479 302.038544,339.556976 
	C301.679016,339.362640 301.068542,338.698975 301.068451,338.035278 
	C301.066986,327.812866 301.144958,317.590424 301.603119,307.183594 
z"/>
<path fill="#5D5D5D" opacity="1.000000" stroke="none" 
	d="
M234.719086,307.124756 
	C235.095078,317.642883 235.067383,328.348236 235.018997,339.521088 
	C234.673935,339.466797 234.065125,338.943909 234.067169,338.423370 
	C234.107635,328.052734 234.218658,317.682373 234.719086,307.124756 
z"/>
<path fill="#B1B1B1" opacity="1.000000" stroke="none" 
	d="
M136.368164,338.961060 
	C135.905655,330.510834 135.872238,321.851471 135.752350,313.193268 
	C135.727646,311.409241 135.380402,309.629669 135.117554,307.435730 
	C135.720139,307.833557 136.962799,308.641388 136.966125,309.454254 
	C137.006027,319.219849 136.862366,328.986176 136.368164,338.961060 
z"/>
<path fill="#767676" opacity="1.000000" stroke="none" 
	d="
M107.668472,307.181519 
	C108.040543,317.659424 108.028252,328.346161 108.004639,339.499176 
	C107.674347,338.786469 107.079300,337.607361 107.079956,336.428558 
	C107.085350,326.749115 107.201538,317.069763 107.668472,307.181519 
z"/>
<path fill="#5D5D5D" opacity="1.000000" stroke="none" 
	d="
M238.353363,339.628571 
	C238.023346,333.206482 238.023346,326.539276 238.023346,319.872101 
	C238.513611,319.730774 239.003876,319.589478 239.494125,319.448151 
	C240.051285,320.498718 240.608429,321.549316 241.092010,322.982483 
	C240.388962,323.841064 239.240494,324.286682 239.210602,324.797760 
	C238.926468,329.653320 238.832260,334.519989 238.353363,339.628571 
z"/>
<path fill="#989898" opacity="1.000000" stroke="none" 
	d="
M176.663696,312.367798 
	C176.944290,313.325287 177.904953,314.684937 177.933182,316.063660 
	C178.089996,323.718567 178.020309,331.378082 178.010864,339.502441 
	C177.669540,337.656128 177.118378,335.348694 177.064423,333.029724 
	C176.907364,326.281891 176.949356,319.529419 176.663696,312.367798 
z"/>
<path fill="#989898" opacity="1.000000" stroke="none" 
	d="
M182.338699,339.834778 
	C182.181137,330.727325 182.419510,321.425812 183.117249,312.044189 
	C183.387497,319.211548 183.206772,326.459259 183.003799,333.706360 
	C182.948380,335.685455 182.826187,337.662659 182.338699,339.834778 
z"/>
<path fill="#B1B1B1" opacity="1.000000" stroke="none" 
	d="
M263.342712,335.036499 
	C262.866272,326.455292 262.771851,317.629669 262.830017,308.350189 
	C263.340637,309.049255 264.008911,310.202789 264.006714,311.355042 
	C263.991882,319.167542 263.835449,326.979767 263.342712,335.036499 
z"/>
<path fill="#B1B1B1" opacity="1.000000" stroke="none" 
	d="
M191.800842,306.559814 
	C184.186096,307.067749 176.392380,307.176147 168.120087,307.158203 
	C171.159363,306.696014 174.671555,306.180847 178.196487,306.069427 
	C182.666199,305.928192 187.146255,306.114960 191.800842,306.559814 
z"/>
<path fill="#767676" opacity="1.000000" stroke="none" 
	d="
M216.001434,152.627747 
	C214.014572,151.178848 211.950485,149.403290 209.957214,147.272064 
	C211.993423,148.711288 213.958817,150.506180 216.001434,152.627747 
z"/>
<path fill="#B1B1B1" opacity="1.000000" stroke="none" 
	d="
M368.082458,320.620239 
	C367.690674,316.693665 367.247009,312.299774 366.887634,307.446564 
	C367.324799,311.375793 367.677704,315.764343 368.082458,320.620239 
z"/>
<path fill="#767676" opacity="1.000000" stroke="none" 
	d="
M209.993668,146.642914 
	C208.472168,146.118271 206.861649,145.267487 204.894424,144.431244 
	C206.607819,142.850235 206.607819,142.850235 209.993668,146.642914 
z"/>
<path fill="#B1B1B1" opacity="1.000000" stroke="none" 
	d="
M380.376251,321.058655 
	C376.611450,321.294098 372.393921,321.502869 368.039429,321.287079 
	C371.909485,320.918976 375.916504,320.975464 380.376251,321.058655 
z"/>
<path fill="#414141" opacity="1.000000" stroke="none" 
	d="
M315.615784,130.886505 
	C314.544037,131.614319 313.117523,132.297180 311.307343,132.970306 
	C312.369476,132.254227 313.815216,131.547882 315.615784,130.886505 
z"/>
<path fill="#5D5D5D" opacity="1.000000" stroke="none" 
	d="
M259.162231,340.369629 
	C260.160004,338.767944 261.323669,337.542114 262.772095,336.076324 
	C263.056824,337.326447 263.056824,338.816528 263.056824,340.745453 
	C261.715515,340.745453 260.521790,340.745453 259.162231,340.369629 
z"/>
<path fill="#313131" opacity="1.000000" stroke="none" 
	d="
M137.367203,254.204117 
	C137.576233,253.050659 138.089493,251.682175 138.966049,250.170776 
	C138.776703,251.348267 138.224075,252.668686 137.367203,254.204117 
z"/>
<path fill="#767676" opacity="1.000000" stroke="none" 
	d="
M217.932678,155.515137 
	C217.189651,155.068588 216.491837,154.296341 215.923035,153.224365 
	C216.693985,153.679596 217.335938,154.434509 217.932678,155.515137 
z"/>
<path fill="#313131" opacity="1.000000" stroke="none" 
	d="
M359.989166,255.310242 
	C360.252472,255.548538 360.556183,256.110565 360.913208,256.997070 
	C360.654205,256.759033 360.341888,256.196503 359.989166,255.310242 
z"/>
<path fill="#414141" opacity="1.000000" stroke="none" 
	d="
M310.687744,132.970673 
	C310.489746,133.278305 309.958496,133.629715 309.122925,134.099045 
	C309.330536,133.816132 309.842529,133.415283 310.687744,132.970673 
z"/>
<path fill="#5D5D5D" opacity="1.000000" stroke="none" 
	d="
M262.963074,307.673828 
	C262.701141,307.810791 262.367584,307.685120 261.987305,307.264984 
	C262.257538,307.117401 262.574493,307.264313 262.963074,307.673828 
z"/>
<path fill="#313131" opacity="1.000000" stroke="none" 
	d="
M334.888031,124.717453 
	C330.499939,122.536293 330.036957,120.784126 334.060455,118.655724 
	C339.943848,115.543457 346.290833,113.307541 352.718658,110.826630 
	C348.025543,113.503334 343.024231,115.995804 338.095856,118.624969 
	C335.877014,119.808647 333.637329,121.171806 334.888031,124.717453 
z"/>
<path fill="#313131" opacity="1.000000" stroke="none" 
	d="
M355.381653,109.950790 
	C356.547272,109.740860 358.137146,109.546875 359.888123,109.641823 
	C358.634796,109.942741 357.220337,109.954735 355.381653,109.950790 
z"/>
<path fill="#000000" opacity="1.000000" stroke="none" 
	d="
M319.646179,315.310547 
	C318.850800,321.066498 313.192291,324.182495 308.768280,321.384460 
	C307.645325,320.674225 307.159485,318.296112 307.152374,316.680969 
	C307.146118,315.265747 308.089233,312.708191 308.842590,312.620148 
	C312.571655,312.184387 316.854980,310.349457 319.646179,315.310547 
z"/>
<path fill="#000000" opacity="1.000000" stroke="none" 
	d="
M287.480408,313.522064 
	C288.392883,319.237976 289.665039,324.750305 289.378662,330.180420 
	C289.164307,334.244476 285.486694,336.176025 281.292419,335.757904 
	C277.290039,335.358978 276.354248,332.275970 276.106110,328.969116 
	C275.908020,326.329193 276.034760,323.663910 276.038483,321.009949 
	C276.050507,312.457184 279.097076,310.345673 287.480408,313.522064 
z"/>
<path fill="#000000" opacity="1.000000" stroke="none" 
	d="
M208.327530,319.122986 
	C208.919922,320.668121 209.377197,321.902039 209.777679,323.154083 
	C211.284470,327.864929 209.825485,329.566376 204.921082,328.980713 
	C202.361633,328.675018 201.333572,327.745575 202.608322,325.105286 
	C203.583862,323.084747 204.250412,320.914551 205.047089,318.808197 
	C206.100845,316.022156 207.134201,316.841980 208.327530,319.122986 
z"/>
<path fill="#000000" opacity="1.000000" stroke="none" 
	d="
M340.359619,322.701355 
	C339.568542,319.459869 339.181061,316.297394 338.793579,313.134888 
	C341.809143,312.886932 344.908600,312.141449 347.800079,312.629181 
	C349.002777,312.832062 350.518005,315.673309 350.500702,317.300049 
	C350.484772,318.797699 348.911438,320.905212 347.470093,321.608459 
	C345.510406,322.564636 343.023834,322.440918 340.359619,322.701355 
z"/>
</svg>